<mxfile host="diagram.qzrok.cn" modified="2021-07-05T11:05:20.260Z" agent="Mozilla/5.0 (Windows NT 10.0; Win64; x64) AppleWebKit/537.36 (KHTML, like Gecko) Chrome/91.0.4472.77 Safari/537.36" etag="uzTKUv54MrJW08K42pSa" version="12.9.3" type="github">
  <diagram id="brTCYtf2TPWAmigMn0IH" name="第 1 页">
    <mxGraphModel dx="1432" dy="762" grid="1" gridSize="10" guides="1" tooltips="1" connect="1" arrows="1" fold="1" page="1" pageScale="1" pageWidth="827" pageHeight="1169" math="0" shadow="0">
      <root>
        <mxCell id="0" />
        <mxCell id="1" parent="0" />
        <mxCell id="SQgpO2C7iJvkAOr_sDY4-64" value="" style="group;dashed=1;strokeColor=none;" vertex="1" connectable="0" parent="1">
          <mxGeometry x="149" y="40" width="520" height="360" as="geometry" />
        </mxCell>
        <mxCell id="SQgpO2C7iJvkAOr_sDY4-25" value="&lt;br&gt;&lt;br&gt;&lt;br&gt;" style="whiteSpace=wrap;html=1;fillColor=#f5f5f5;strokeColor=#666666;fontColor=#333333;" vertex="1" parent="SQgpO2C7iJvkAOr_sDY4-64">
          <mxGeometry width="340" height="360" as="geometry" />
        </mxCell>
        <mxCell id="SQgpO2C7iJvkAOr_sDY4-19" value="&lt;br&gt;&lt;br&gt;&lt;br&gt;" style="whiteSpace=wrap;html=1;dashed=1;strokeColor=#CCCCCC;" vertex="1" parent="SQgpO2C7iJvkAOr_sDY4-64">
          <mxGeometry x="60" y="159" width="210" height="171" as="geometry" />
        </mxCell>
        <mxCell id="SQgpO2C7iJvkAOr_sDY4-8" value="数据库" style="shape=cylinder;whiteSpace=wrap;html=1;boundedLbl=1;backgroundOutline=1;fillColor=#E6E6E6;strokeColor=#666666;fontColor=#333333;" vertex="1" parent="SQgpO2C7iJvkAOr_sDY4-64">
          <mxGeometry x="440" y="21.5" width="80" height="60" as="geometry" />
        </mxCell>
        <mxCell id="SQgpO2C7iJvkAOr_sDY4-20" value="功能菜单" style="rounded=0;whiteSpace=wrap;html=1;fillColor=#f5f5f5;strokeColor=#8C8C8C;fontColor=#333333;" vertex="1" parent="SQgpO2C7iJvkAOr_sDY4-64">
          <mxGeometry x="74" y="184" width="86" height="30" as="geometry" />
        </mxCell>
        <mxCell id="SQgpO2C7iJvkAOr_sDY4-21" value="组织架构" style="rounded=0;whiteSpace=wrap;html=1;fillColor=#f5f5f5;strokeColor=#8C8C8C;fontColor=#333333;" vertex="1" parent="SQgpO2C7iJvkAOr_sDY4-64">
          <mxGeometry x="172" y="184" width="86" height="30" as="geometry" />
        </mxCell>
        <mxCell id="SQgpO2C7iJvkAOr_sDY4-22" value="表单配置" style="rounded=0;whiteSpace=wrap;html=1;fillColor=#f5f5f5;strokeColor=#8C8C8C;fontColor=#333333;" vertex="1" parent="SQgpO2C7iJvkAOr_sDY4-64">
          <mxGeometry x="74" y="229" width="86" height="30" as="geometry" />
        </mxCell>
        <mxCell id="SQgpO2C7iJvkAOr_sDY4-23" value="流程配置" style="rounded=0;whiteSpace=wrap;html=1;fillColor=#f5f5f5;strokeColor=#8C8C8C;fontColor=#333333;" vertex="1" parent="SQgpO2C7iJvkAOr_sDY4-64">
          <mxGeometry x="74" y="274" width="86" height="30" as="geometry" />
        </mxCell>
        <mxCell id="SQgpO2C7iJvkAOr_sDY4-27" value="&lt;br&gt;&lt;br&gt;&lt;br&gt;" style="whiteSpace=wrap;html=1;dashed=1;strokeColor=#CCCCCC;" vertex="1" parent="SQgpO2C7iJvkAOr_sDY4-64">
          <mxGeometry x="60" y="30" width="214" height="110" as="geometry" />
        </mxCell>
        <mxCell id="SQgpO2C7iJvkAOr_sDY4-28" value="业务系统 （子系统-功能）" style="text;html=1;strokeColor=none;fillColor=none;align=center;verticalAlign=middle;whiteSpace=wrap;rounded=0;dashed=1;" vertex="1" parent="SQgpO2C7iJvkAOr_sDY4-64">
          <mxGeometry x="92" y="33" width="150" height="20" as="geometry" />
        </mxCell>
        <mxCell id="SQgpO2C7iJvkAOr_sDY4-35" value="ERP 子系统" style="rounded=0;whiteSpace=wrap;html=1;fillColor=#f5f5f5;strokeColor=#D9D9D9;fontColor=#333333;dashed=1;" vertex="1" parent="SQgpO2C7iJvkAOr_sDY4-64">
          <mxGeometry x="74" y="60" width="70" height="70" as="geometry" />
        </mxCell>
        <mxCell id="SQgpO2C7iJvkAOr_sDY4-36" value="CRM 子系统" style="rounded=0;whiteSpace=wrap;html=1;fillColor=#f5f5f5;strokeColor=#D9D9D9;fontColor=#333333;dashed=1;" vertex="1" parent="SQgpO2C7iJvkAOr_sDY4-64">
          <mxGeometry x="150" y="60" width="70" height="70" as="geometry" />
        </mxCell>
        <mxCell id="SQgpO2C7iJvkAOr_sDY4-37" value="核心功能" style="text;html=1;strokeColor=none;fillColor=none;align=center;verticalAlign=middle;whiteSpace=wrap;rounded=0;dashed=1;" vertex="1" parent="SQgpO2C7iJvkAOr_sDY4-64">
          <mxGeometry x="90" y="159" width="150" height="20" as="geometry" />
        </mxCell>
        <mxCell id="SQgpO2C7iJvkAOr_sDY4-38" value="" style="endArrow=classic;html=1;exitX=1;exitY=0.5;exitDx=0;exitDy=0;edgeStyle=orthogonalEdgeStyle;entryX=1;entryY=0.75;entryDx=0;entryDy=0;elbow=vertical;comic=1;strokeColor=#666666;" edge="1" parent="SQgpO2C7iJvkAOr_sDY4-64" source="SQgpO2C7iJvkAOr_sDY4-19" target="SQgpO2C7iJvkAOr_sDY4-27">
          <mxGeometry width="50" height="50" relative="1" as="geometry">
            <mxPoint x="250" y="330" as="sourcePoint" />
            <mxPoint x="-100" y="220" as="targetPoint" />
            <Array as="points">
              <mxPoint x="300" y="245" />
              <mxPoint x="300" y="113" />
            </Array>
          </mxGeometry>
        </mxCell>
        <mxCell id="SQgpO2C7iJvkAOr_sDY4-39" value="配置" style="text;html=1;align=center;verticalAlign=middle;resizable=0;points=[];labelBackgroundColor=#ffffff;fontColor=#0A0A0A;" vertex="1" connectable="0" parent="SQgpO2C7iJvkAOr_sDY4-38">
          <mxGeometry x="0.113" relative="1" as="geometry">
            <mxPoint y="5.5" as="offset" />
          </mxGeometry>
        </mxCell>
        <mxCell id="SQgpO2C7iJvkAOr_sDY4-40" value="定时任务" style="rounded=0;whiteSpace=wrap;html=1;fillColor=#f5f5f5;strokeColor=#8C8C8C;fontColor=#333333;" vertex="1" parent="SQgpO2C7iJvkAOr_sDY4-64">
          <mxGeometry x="171" y="229.5" width="86" height="30" as="geometry" />
        </mxCell>
        <mxCell id="SQgpO2C7iJvkAOr_sDY4-44" value="" style="endArrow=classic;html=1;exitX=1;exitY=0;exitDx=0;exitDy=0;entryX=0;entryY=0.7;entryDx=0;entryDy=0;comic=1;" edge="1" parent="SQgpO2C7iJvkAOr_sDY4-64" source="SQgpO2C7iJvkAOr_sDY4-19" target="SQgpO2C7iJvkAOr_sDY4-8">
          <mxGeometry width="50" height="50" relative="1" as="geometry">
            <mxPoint x="250" y="330" as="sourcePoint" />
            <mxPoint x="300" y="280" as="targetPoint" />
          </mxGeometry>
        </mxCell>
        <mxCell id="SQgpO2C7iJvkAOr_sDY4-49" value="业务配置" style="text;html=1;align=center;verticalAlign=middle;resizable=0;points=[];labelBackgroundColor=#ffffff;" vertex="1" connectable="0" parent="SQgpO2C7iJvkAOr_sDY4-44">
          <mxGeometry x="-0.1152" y="1" relative="1" as="geometry">
            <mxPoint as="offset" />
          </mxGeometry>
        </mxCell>
        <mxCell id="SQgpO2C7iJvkAOr_sDY4-48" value="" style="endArrow=classic;html=1;exitX=1;exitY=0.5;exitDx=0;exitDy=0;entryX=0;entryY=0.3;entryDx=0;entryDy=0;comic=1;" edge="1" parent="SQgpO2C7iJvkAOr_sDY4-64" source="SQgpO2C7iJvkAOr_sDY4-27" target="SQgpO2C7iJvkAOr_sDY4-8">
          <mxGeometry width="50" height="50" relative="1" as="geometry">
            <mxPoint x="250" y="330" as="sourcePoint" />
            <mxPoint x="300" y="280" as="targetPoint" />
          </mxGeometry>
        </mxCell>
        <mxCell id="SQgpO2C7iJvkAOr_sDY4-50" value="业务数据" style="text;html=1;align=center;verticalAlign=middle;resizable=0;points=[];labelBackgroundColor=#ffffff;" vertex="1" connectable="0" parent="SQgpO2C7iJvkAOr_sDY4-48">
          <mxGeometry x="0.1091" y="-1" relative="1" as="geometry">
            <mxPoint as="offset" />
          </mxGeometry>
        </mxCell>
        <mxCell id="SQgpO2C7iJvkAOr_sDY4-51" value="缓存组件" style="shape=cube;whiteSpace=wrap;html=1;boundedLbl=1;backgroundOutline=1;darkOpacity=0.05;darkOpacity2=0.1;fillColor=#E6E6E6;strokeColor=#666666;fontColor=#333333;" vertex="1" parent="SQgpO2C7iJvkAOr_sDY4-64">
          <mxGeometry x="440" y="164" width="80" height="50" as="geometry" />
        </mxCell>
        <mxCell id="SQgpO2C7iJvkAOr_sDY4-52" value="消息组件" style="shape=cube;whiteSpace=wrap;html=1;boundedLbl=1;backgroundOutline=1;darkOpacity=0.05;darkOpacity2=0.1;fillColor=#E6E6E6;strokeColor=#666666;fontColor=#333333;" vertex="1" parent="SQgpO2C7iJvkAOr_sDY4-64">
          <mxGeometry x="440" y="259.5" width="80" height="50" as="geometry" />
        </mxCell>
        <mxCell id="SQgpO2C7iJvkAOr_sDY4-55" value="" style="endArrow=classic;html=1;exitX=1;exitY=0.5;exitDx=0;exitDy=0;entryX=0;entryY=0;entryDx=0;entryDy=15;entryPerimeter=0;comic=1;" edge="1" parent="SQgpO2C7iJvkAOr_sDY4-64" source="SQgpO2C7iJvkAOr_sDY4-25" target="SQgpO2C7iJvkAOr_sDY4-51">
          <mxGeometry width="50" height="50" relative="1" as="geometry">
            <mxPoint x="250" y="330" as="sourcePoint" />
            <mxPoint x="300" y="280" as="targetPoint" />
          </mxGeometry>
        </mxCell>
        <mxCell id="SQgpO2C7iJvkAOr_sDY4-56" value="" style="endArrow=classic;html=1;exitX=0.997;exitY=0.769;exitDx=0;exitDy=0;entryX=0;entryY=0;entryDx=0;entryDy=15;entryPerimeter=0;comic=1;exitPerimeter=0;" edge="1" parent="SQgpO2C7iJvkAOr_sDY4-64" source="SQgpO2C7iJvkAOr_sDY4-25" target="SQgpO2C7iJvkAOr_sDY4-52">
          <mxGeometry width="50" height="50" relative="1" as="geometry">
            <mxPoint x="300" y="210" as="sourcePoint" />
            <mxPoint x="490" y="239" as="targetPoint" />
          </mxGeometry>
        </mxCell>
        <mxCell id="SQgpO2C7iJvkAOr_sDY4-63" value="..." style="text;html=1;strokeColor=none;fillColor=none;align=center;verticalAlign=middle;whiteSpace=wrap;rounded=0;" vertex="1" parent="SQgpO2C7iJvkAOr_sDY4-64">
          <mxGeometry x="220" y="85" width="40" height="20" as="geometry" />
        </mxCell>
        <mxCell id="SQgpO2C7iJvkAOr_sDY4-65" value="..." style="text;html=1;strokeColor=none;fillColor=none;align=center;verticalAlign=middle;whiteSpace=wrap;rounded=0;" vertex="1" parent="SQgpO2C7iJvkAOr_sDY4-64">
          <mxGeometry x="172" y="284" width="40" height="20" as="geometry" />
        </mxCell>
      </root>
    </mxGraphModel>
  </diagram>
</mxfile>
